<?xml version="1.0" encoding="UTF-8" standalone="no"?><!DOCTYPE svg PUBLIC "-//W3C//DTD SVG 1.1//EN" "http://www.w3.org/Graphics/SVG/1.1/DTD/svg11.dtd"><svg width="100%" height="100%" viewBox="0 0 1024 512" version="1.1" xmlns="http://www.w3.org/2000/svg" xmlns:xlink="http://www.w3.org/1999/xlink" xml:space="preserve" style="fill-rule:evenodd;clip-rule:evenodd;stroke-linejoin:round;stroke-miterlimit:2;"><text x="83.533px" y="363.666px" style="font-family:'NanumMyeongjo', 'Nanum Myeongjo', serif;font-size:300px;fill:#fff;">삼겹살</text><path d="M1024,49.072l-49.072,-49.072l-925.856,0l-49.072,49.072l0,413.856l49.072,49.072l925.856,0l49.072,-49.072l-0,-413.856Z" style="fill:#fff;fill-opacity:0;"/><path d="M1024,49.072l-49.072,-49.072l-925.856,0l-49.072,49.072l0,413.856l49.072,49.072l925.856,0l49.072,-49.072l-0,-413.856Zm-20.833,8.629l-0,396.598c-0,-0 -36.868,36.868 -36.868,36.868c-0,-0 -908.598,-0 -908.598,-0c0,-0 -36.868,-36.868 -36.868,-36.868c0,-0 0,-396.598 0,-396.598c0,0 36.868,-36.868 36.868,-36.868c0,0 908.598,0 908.598,0l36.868,36.868Z" style="fill:#fff;"/></svg>